<?xml version="1.0" encoding="UTF-8"?>
<svg xmlns="http://www.w3.org/2000/svg" xmlns:xlink="http://www.w3.org/1999/xlink" width="266.666667" height="193.333333" viewBox="0 0 266.666667 193.333333" version="1.1">
<g id="surface1">
<path style=" stroke:none;fill-rule:nonzero;fill:rgb(0%,0%,0%);fill-opacity:1;" d="M 12.929688 183.386719 L 12.929688 182.386719 L 18.617188 179.992188 L 18.617188 181.03125 L 14.097656 182.886719 L 18.617188 184.761719 L 18.617188 185.804688 Z M 12.929688 183.386719 "/>
<path style=" stroke:none;fill-rule:nonzero;fill:rgb(0%,0%,0%);fill-opacity:1;" d="M 24.125 184.867188 L 25.167969 184.992188 C 25.050781 185.714844 24.761719 186.277344 24.292969 186.679688 C 23.816406 187.085938 23.238281 187.28125 22.5625 187.28125 C 21.714844 187.28125 21.03125 187.007812 20.519531 186.449219 C 20.003906 185.898438 19.75 185.09375 19.75 184.054688 C 19.75 183.375 19.859375 182.78125 20.082031 182.28125 C 20.300781 181.78125 20.636719 181.40625 21.082031 181.15625 C 21.542969 180.90625 22.042969 180.78125 22.582031 180.78125 C 23.25 180.78125 23.796875 180.960938 24.230469 181.304688 C 24.65625 181.636719 24.9375 182.117188 25.0625 182.742188 L 24.042969 182.90625 C 23.941406 182.492188 23.769531 182.179688 23.519531 181.96875 C 23.269531 181.75 22.96875 181.636719 22.625 181.636719 C 22.082031 181.636719 21.644531 181.835938 21.3125 182.21875 C 20.988281 182.59375 20.832031 183.195312 20.832031 184.011719 C 20.832031 184.859375 20.988281 185.46875 21.3125 185.84375 C 21.628906 186.21875 22.046875 186.40625 22.5625 186.40625 C 22.980469 186.40625 23.324219 186.28125 23.605469 186.03125 C 23.878906 185.78125 24.050781 185.398438 24.125 184.867188 Z M 24.125 184.867188 "/>
<path style=" stroke:none;fill-rule:nonzero;fill:rgb(0%,0%,0%);fill-opacity:1;" d="M 26.042969 187.136719 L 26.042969 178.554688 L 27.082031 178.554688 L 27.082031 187.136719 Z M 26.042969 187.136719 "/>
<path style=" stroke:none;fill-rule:nonzero;fill:rgb(0%,0%,0%);fill-opacity:1;" d="M 28.3125 185.28125 L 29.355469 185.117188 C 29.40625 185.53125 29.566406 185.855469 29.832031 186.074219 C 30.109375 186.296875 30.484375 186.40625 30.957031 186.40625 C 31.441406 186.40625 31.800781 186.3125 32.042969 186.117188 C 32.277344 185.921875 32.394531 185.695312 32.394531 185.429688 C 32.394531 185.179688 32.292969 184.992188 32.082031 184.867188 C 31.925781 184.773438 31.566406 184.648438 31 184.492188 C 30.21875 184.296875 29.675781 184.132812 29.375 183.992188 C 29.082031 183.855469 28.859375 183.65625 28.707031 183.40625 C 28.550781 183.15625 28.480469 182.882812 28.480469 182.574219 C 28.480469 182.296875 28.542969 182.042969 28.667969 181.804688 C 28.792969 181.570312 28.964844 181.367188 29.1875 181.199219 C 29.355469 181.089844 29.574219 180.992188 29.855469 180.90625 C 30.144531 180.824219 30.449219 180.78125 30.769531 180.78125 C 31.253906 180.78125 31.675781 180.855469 32.042969 180.992188 C 32.417969 181.132812 32.691406 181.320312 32.875 181.554688 C 33.050781 181.792969 33.175781 182.109375 33.25 182.511719 L 32.207031 182.65625 C 32.167969 182.339844 32.027344 182.089844 31.792969 181.90625 C 31.566406 181.730469 31.253906 181.636719 30.855469 181.636719 C 30.363281 181.636719 30.019531 181.71875 29.8125 181.886719 C 29.605469 182.042969 29.5 182.230469 29.5 182.449219 C 29.5 182.589844 29.542969 182.710938 29.625 182.804688 C 29.707031 182.929688 29.84375 183.027344 30.042969 183.09375 C 30.136719 183.136719 30.441406 183.230469 30.957031 183.367188 C 31.707031 183.5625 32.230469 183.71875 32.519531 183.84375 C 32.824219 183.96875 33.0625 184.15625 33.230469 184.40625 C 33.394531 184.648438 33.480469 184.945312 33.480469 185.304688 C 33.480469 185.667969 33.375 186 33.167969 186.304688 C 32.957031 186.609375 32.65625 186.855469 32.269531 187.03125 C 31.894531 187.199219 31.457031 187.28125 30.957031 187.28125 C 30.152344 187.28125 29.53125 187.117188 29.105469 186.78125 C 28.6875 186.4375 28.421875 185.9375 28.3125 185.28125 Z M 28.3125 185.28125 "/>
<path style=" stroke:none;fill-rule:nonzero;fill:rgb(0%,0%,0%);fill-opacity:1;" d="M 40.292969 183.386719 L 34.605469 185.804688 L 34.605469 184.761719 L 39.105469 182.886719 L 34.605469 181.03125 L 34.605469 179.992188 L 40.292969 182.386719 Z M 40.292969 183.386719 "/>
<path style=" stroke:none;fill-rule:nonzero;fill:rgb(0%,0%,0%);fill-opacity:1;" d="M 59.769531 187.136719 L 59.769531 179.554688 L 56.957031 179.554688 L 56.957031 178.554688 L 63.75 178.554688 L 63.75 179.554688 L 60.914062 179.554688 L 60.914062 187.136719 Z M 59.769531 187.136719 "/>
<path style=" stroke:none;fill-rule:nonzero;fill:rgb(0%,0%,0%);fill-opacity:1;" d="M 64.785156 187.136719 L 64.785156 178.554688 L 65.847656 178.554688 L 65.847656 181.636719 C 66.332031 181.070312 66.953125 180.78125 67.703125 180.78125 C 68.160156 180.78125 68.558594 180.875 68.890625 181.054688 C 69.234375 181.234375 69.480469 181.484375 69.621094 181.804688 C 69.769531 182.125 69.847656 182.589844 69.847656 183.199219 L 69.847656 187.136719 L 68.808594 187.136719 L 68.808594 183.199219 C 68.808594 182.671875 68.6875 182.292969 68.453125 182.054688 C 68.230469 181.804688 67.910156 181.679688 67.496094 181.679688 C 67.171875 181.679688 66.875 181.761719 66.597656 181.929688 C 66.316406 182.085938 66.125 182.296875 66.015625 182.574219 C 65.902344 182.855469 65.847656 183.242188 65.847656 183.742188 L 65.847656 187.136719 Z M 64.785156 187.136719 "/>
<path style=" stroke:none;fill-rule:nonzero;fill:rgb(0%,0%,0%);fill-opacity:1;" d="M 71.457031 179.761719 L 71.457031 178.554688 L 72.519531 178.554688 L 72.519531 179.761719 Z M 71.457031 187.136719 L 71.457031 180.90625 L 72.519531 180.90625 L 72.519531 187.136719 Z M 71.457031 187.136719 "/>
<path style=" stroke:none;fill-rule:nonzero;fill:rgb(0%,0%,0%);fill-opacity:1;" d="M 73.699219 185.28125 L 74.742188 185.117188 C 74.792969 185.53125 74.957031 185.855469 75.222656 186.074219 C 75.496094 186.296875 75.871094 186.40625 76.347656 186.40625 C 76.832031 186.40625 77.191406 186.3125 77.429688 186.117188 C 77.664062 185.921875 77.785156 185.695312 77.785156 185.429688 C 77.785156 185.179688 77.679688 184.992188 77.472656 184.867188 C 77.316406 184.773438 76.957031 184.648438 76.386719 184.492188 C 75.605469 184.296875 75.066406 184.132812 74.761719 183.992188 C 74.472656 183.855469 74.246094 183.65625 74.097656 183.40625 C 73.941406 183.15625 73.867188 182.882812 73.867188 182.574219 C 73.867188 182.296875 73.929688 182.042969 74.054688 181.804688 C 74.179688 181.570312 74.351562 181.367188 74.574219 181.199219 C 74.742188 181.089844 74.960938 180.992188 75.242188 180.90625 C 75.535156 180.824219 75.835938 180.78125 76.160156 180.78125 C 76.644531 180.78125 77.066406 180.855469 77.429688 180.992188 C 77.804688 181.132812 78.082031 181.320312 78.261719 181.554688 C 78.441406 181.792969 78.566406 182.109375 78.636719 182.511719 L 77.597656 182.65625 C 77.554688 182.339844 77.414062 182.089844 77.179688 181.90625 C 76.957031 181.730469 76.644531 181.636719 76.242188 181.636719 C 75.753906 181.636719 75.410156 181.71875 75.199219 181.886719 C 74.992188 182.042969 74.886719 182.230469 74.886719 182.449219 C 74.886719 182.589844 74.929688 182.710938 75.011719 182.804688 C 75.097656 182.929688 75.230469 183.027344 75.429688 183.09375 C 75.523438 183.136719 75.832031 183.230469 76.347656 183.367188 C 77.097656 183.5625 77.617188 183.71875 77.910156 183.84375 C 78.210938 183.96875 78.449219 184.15625 78.617188 184.40625 C 78.785156 184.648438 78.867188 184.945312 78.867188 185.304688 C 78.867188 185.667969 78.761719 186 78.554688 186.304688 C 78.347656 186.609375 78.042969 186.855469 77.660156 187.03125 C 77.285156 187.199219 76.847656 187.28125 76.347656 187.28125 C 75.539062 187.28125 74.917969 187.117188 74.492188 186.78125 C 74.074219 186.4375 73.808594 185.9375 73.699219 185.28125 Z M 73.699219 185.28125 "/>
<path style=" stroke:none;fill-rule:nonzero;fill:rgb(0%,0%,0%);fill-opacity:1;" d="M 97.273438 185.28125 L 98.316406 185.117188 C 98.367188 185.53125 98.527344 185.855469 98.792969 186.074219 C 99.070312 186.296875 99.445312 186.40625 99.917969 186.40625 C 100.402344 186.40625 100.761719 186.3125 101.003906 186.117188 C 101.238281 185.921875 101.355469 185.695312 101.355469 185.429688 C 101.355469 185.179688 101.253906 184.992188 101.042969 184.867188 C 100.886719 184.773438 100.527344 184.648438 99.960938 184.492188 C 99.179688 184.296875 98.636719 184.132812 98.335938 183.992188 C 98.042969 183.855469 97.820312 183.65625 97.667969 183.40625 C 97.511719 183.15625 97.441406 182.882812 97.441406 182.574219 C 97.441406 182.296875 97.503906 182.042969 97.628906 181.804688 C 97.753906 181.570312 97.925781 181.367188 98.148438 181.199219 C 98.316406 181.089844 98.535156 180.992188 98.816406 180.90625 C 99.105469 180.824219 99.410156 180.78125 99.730469 180.78125 C 100.214844 180.78125 100.636719 180.855469 101.003906 180.992188 C 101.378906 181.132812 101.652344 181.320312 101.835938 181.554688 C 102.011719 181.792969 102.136719 182.109375 102.210938 182.511719 L 101.167969 182.65625 C 101.128906 182.339844 100.988281 182.089844 100.753906 181.90625 C 100.527344 181.730469 100.214844 181.636719 99.816406 181.636719 C 99.324219 181.636719 98.980469 181.71875 98.773438 181.886719 C 98.566406 182.042969 98.460938 182.230469 98.460938 182.449219 C 98.460938 182.589844 98.503906 182.710938 98.585938 182.804688 C 98.667969 182.929688 98.804688 183.027344 99.003906 183.09375 C 99.097656 183.136719 99.402344 183.230469 99.917969 183.367188 C 100.667969 183.5625 101.191406 183.71875 101.480469 183.84375 C 101.785156 183.96875 102.023438 184.15625 102.191406 184.40625 C 102.355469 184.648438 102.441406 184.945312 102.441406 185.304688 C 102.441406 185.667969 102.335938 186 102.128906 186.304688 C 101.917969 186.609375 101.617188 186.855469 101.230469 187.03125 C 100.855469 187.199219 100.417969 187.28125 99.917969 187.28125 C 99.113281 187.28125 98.492188 187.117188 98.066406 186.78125 C 97.648438 186.4375 97.382812 185.9375 97.273438 185.28125 Z M 97.273438 185.28125 "/>
<path style=" stroke:none;fill-rule:nonzero;fill:rgb(0%,0%,0%);fill-opacity:1;" d="M 103.691406 187.136719 L 103.691406 178.554688 L 104.753906 178.554688 L 104.753906 181.636719 C 105.238281 181.070312 105.855469 180.78125 106.605469 180.78125 C 107.066406 180.78125 107.460938 180.875 107.792969 181.054688 C 108.136719 181.234375 108.382812 181.484375 108.523438 181.804688 C 108.675781 182.125 108.753906 182.589844 108.753906 183.199219 L 108.753906 187.136719 L 107.710938 187.136719 L 107.710938 183.199219 C 107.710938 182.671875 107.589844 182.292969 107.355469 182.054688 C 107.132812 181.804688 106.816406 181.679688 106.398438 181.679688 C 106.074219 181.679688 105.777344 181.761719 105.503906 181.929688 C 105.222656 182.085938 105.027344 182.296875 104.917969 182.574219 C 104.804688 182.855469 104.753906 183.242188 104.753906 183.742188 L 104.753906 187.136719 Z M 103.691406 187.136719 "/>
<path style=" stroke:none;fill-rule:nonzero;fill:rgb(0%,0%,0%);fill-opacity:1;" d="M 109.96875 184.03125 C 109.96875 182.882812 110.285156 182.027344 110.925781 181.46875 C 111.46875 181.011719 112.121094 180.78125 112.886719 180.78125 C 113.746094 180.78125 114.449219 181.0625 114.988281 181.617188 C 115.53125 182.171875 115.800781 182.945312 115.800781 183.929688 C 115.800781 184.734375 115.675781 185.367188 115.425781 185.824219 C 115.1875 186.28125 114.84375 186.648438 114.386719 186.90625 C 113.925781 187.15625 113.425781 187.28125 112.886719 187.28125 C 112.011719 187.28125 111.300781 187.007812 110.761719 186.449219 C 110.230469 185.882812 109.96875 185.074219 109.96875 184.03125 Z M 111.050781 184.03125 C 111.050781 184.824219 111.222656 185.421875 111.574219 185.824219 C 111.917969 186.214844 112.355469 186.40625 112.886719 186.40625 C 113.410156 186.40625 113.847656 186.214844 114.199219 185.824219 C 114.542969 185.421875 114.71875 184.8125 114.71875 183.992188 C 114.71875 183.230469 114.542969 182.648438 114.199219 182.242188 C 113.847656 181.839844 113.410156 181.636719 112.886719 181.636719 C 112.355469 181.636719 111.917969 181.839844 111.574219 182.242188 C 111.222656 182.632812 111.050781 183.230469 111.050781 184.03125 Z M 111.050781 184.03125 "/>
<path style=" stroke:none;fill-rule:nonzero;fill:rgb(0%,0%,0%);fill-opacity:1;" d="M 118.183594 187.136719 L 116.289062 180.90625 L 117.371094 180.90625 L 118.371094 184.511719 L 118.726562 185.84375 C 118.738281 185.777344 118.851562 185.34375 119.058594 184.554688 L 120.039062 180.90625 L 121.121094 180.90625 L 122.058594 184.53125 L 122.371094 185.71875 L 122.726562 184.511719 L 123.789062 180.90625 L 124.808594 180.90625 L 122.871094 187.136719 L 121.789062 187.136719 L 120.789062 183.40625 L 120.539062 182.34375 L 119.289062 187.136719 Z M 118.183594 187.136719 "/>
<path style=" stroke:none;fill-rule:nonzero;fill:rgb(0%,0%,0%);fill-opacity:1;" d="M 150.0625 179.761719 L 150.0625 178.554688 L 151.125 178.554688 L 151.125 179.761719 Z M 150.0625 187.136719 L 150.0625 180.90625 L 151.125 180.90625 L 151.125 187.136719 Z M 150.0625 187.136719 "/>
<path style=" stroke:none;fill-rule:nonzero;fill:rgb(0%,0%,0%);fill-opacity:1;" d="M 152.3125 185.28125 L 153.355469 185.117188 C 153.40625 185.53125 153.566406 185.855469 153.832031 186.074219 C 154.109375 186.296875 154.484375 186.40625 154.957031 186.40625 C 155.441406 186.40625 155.800781 186.3125 156.042969 186.117188 C 156.277344 185.921875 156.394531 185.695312 156.394531 185.429688 C 156.394531 185.179688 156.292969 184.992188 156.082031 184.867188 C 155.925781 184.773438 155.566406 184.648438 155 184.492188 C 154.21875 184.296875 153.675781 184.132812 153.375 183.992188 C 153.082031 183.855469 152.859375 183.65625 152.707031 183.40625 C 152.550781 183.15625 152.480469 182.882812 152.480469 182.574219 C 152.480469 182.296875 152.542969 182.042969 152.667969 181.804688 C 152.792969 181.570312 152.964844 181.367188 153.1875 181.199219 C 153.355469 181.089844 153.574219 180.992188 153.855469 180.90625 C 154.144531 180.824219 154.449219 180.78125 154.769531 180.78125 C 155.253906 180.78125 155.675781 180.855469 156.042969 180.992188 C 156.417969 181.132812 156.691406 181.320312 156.875 181.554688 C 157.050781 181.792969 157.175781 182.109375 157.25 182.511719 L 156.207031 182.65625 C 156.167969 182.339844 156.027344 182.089844 155.792969 181.90625 C 155.566406 181.730469 155.253906 181.636719 154.855469 181.636719 C 154.363281 181.636719 154.019531 181.71875 153.8125 181.886719 C 153.605469 182.042969 153.5 182.230469 153.5 182.449219 C 153.5 182.589844 153.542969 182.710938 153.625 182.804688 C 153.707031 182.929688 153.84375 183.027344 154.042969 183.09375 C 154.136719 183.136719 154.441406 183.230469 154.957031 183.367188 C 155.707031 183.5625 156.230469 183.71875 156.519531 183.84375 C 156.824219 183.96875 157.0625 184.15625 157.230469 184.40625 C 157.394531 184.648438 157.480469 184.945312 157.480469 185.304688 C 157.480469 185.667969 157.375 186 157.167969 186.304688 C 156.957031 186.609375 156.65625 186.855469 156.269531 187.03125 C 155.894531 187.199219 155.457031 187.28125 154.957031 187.28125 C 154.152344 187.28125 153.53125 187.117188 153.105469 186.78125 C 152.6875 186.4375 152.421875 185.9375 152.3125 185.28125 Z M 152.3125 185.28125 "/>
<path style=" stroke:none;fill-rule:nonzero;fill:rgb(0%,0%,0%);fill-opacity:1;" d="M 187.660156 187.136719 L 187.660156 180.90625 L 188.617188 180.90625 L 188.617188 181.804688 C 189.058594 181.125 189.722656 180.78125 190.597656 180.78125 C 190.972656 180.78125 191.308594 180.855469 191.617188 180.992188 C 191.933594 181.117188 192.167969 181.292969 192.324219 181.511719 C 192.476562 181.71875 192.585938 181.980469 192.660156 182.28125 C 192.699219 182.480469 192.722656 182.820312 192.722656 183.304688 L 192.722656 187.136719 L 191.660156 187.136719 L 191.660156 183.34375 C 191.660156 182.917969 191.617188 182.59375 191.535156 182.386719 C 191.449219 182.179688 191.304688 182.011719 191.097656 181.886719 C 190.886719 181.75 190.644531 181.679688 190.367188 181.679688 C 189.917969 181.679688 189.535156 181.824219 189.199219 182.117188 C 188.878906 182.398438 188.722656 182.9375 188.722656 183.742188 L 188.722656 187.136719 Z M 187.660156 187.136719 "/>
<path style=" stroke:none;fill-rule:nonzero;fill:rgb(0%,0%,0%);fill-opacity:1;" d="M 193.9375 184.03125 C 193.9375 182.882812 194.253906 182.027344 194.894531 181.46875 C 195.4375 181.011719 196.089844 180.78125 196.855469 180.78125 C 197.714844 180.78125 198.417969 181.0625 198.957031 181.617188 C 199.5 182.171875 199.769531 182.945312 199.769531 183.929688 C 199.769531 184.734375 199.644531 185.367188 199.394531 185.824219 C 199.15625 186.28125 198.8125 186.648438 198.355469 186.90625 C 197.894531 187.15625 197.394531 187.28125 196.855469 187.28125 C 195.980469 187.28125 195.269531 187.007812 194.730469 186.449219 C 194.199219 185.882812 193.9375 185.074219 193.9375 184.03125 Z M 195.019531 184.03125 C 195.019531 184.824219 195.191406 185.421875 195.542969 185.824219 C 195.886719 186.214844 196.324219 186.40625 196.855469 186.40625 C 197.378906 186.40625 197.816406 186.214844 198.167969 185.824219 C 198.511719 185.421875 198.6875 184.8125 198.6875 183.992188 C 198.6875 183.230469 198.511719 182.648438 198.167969 182.242188 C 197.816406 181.839844 197.378906 181.636719 196.855469 181.636719 C 196.324219 181.636719 195.886719 181.839844 195.542969 182.242188 C 195.191406 182.632812 195.019531 183.230469 195.019531 184.03125 Z M 195.019531 184.03125 "/>
<path style=" stroke:none;fill-rule:nonzero;fill:rgb(0%,0%,0%);fill-opacity:1;" d="M 203.320312 186.199219 L 203.464844 187.117188 C 203.160156 187.183594 202.894531 187.21875 202.675781 187.21875 C 202.285156 187.21875 201.988281 187.15625 201.777344 187.03125 C 201.570312 186.90625 201.414062 186.75 201.320312 186.554688 C 201.238281 186.359375 201.195312 185.949219 201.195312 185.324219 L 201.195312 181.742188 L 200.425781 181.742188 L 200.425781 180.90625 L 201.195312 180.90625 L 201.195312 179.367188 L 202.257812 178.742188 L 202.257812 180.90625 L 203.320312 180.90625 L 203.320312 181.742188 L 202.257812 181.742188 L 202.257812 185.367188 C 202.257812 185.671875 202.269531 185.867188 202.300781 185.949219 C 202.339844 186.03125 202.402344 186.105469 202.488281 186.15625 C 202.570312 186.214844 202.683594 186.242188 202.839844 186.242188 C 202.964844 186.242188 203.121094 186.230469 203.320312 186.199219 Z M 203.320312 186.199219 "/>
<path style=" stroke:none;fill-rule:nonzero;fill:rgb(0%,0%,0%);fill-opacity:1;" d="M 230.96875 187.136719 L 229.988281 187.136719 L 229.988281 178.554688 L 231.03125 178.554688 L 231.03125 181.617188 C 231.472656 181.0625 232.039062 180.78125 232.738281 180.78125 C 233.125 180.78125 233.488281 180.859375 233.820312 181.011719 C 234.164062 181.167969 234.453125 181.382812 234.675781 181.65625 C 234.894531 181.9375 235.070312 182.277344 235.195312 182.679688 C 235.320312 183.070312 235.382812 183.484375 235.382812 183.929688 C 235.382812 185 235.117188 185.824219 234.59375 186.40625 C 234.0625 186.992188 233.429688 187.28125 232.695312 187.28125 C 231.957031 187.28125 231.382812 186.980469 230.96875 186.367188 Z M 230.945312 183.96875 C 230.945312 184.71875 231.050781 185.261719 231.257812 185.59375 C 231.59375 186.136719 232.035156 186.40625 232.59375 186.40625 C 233.0625 186.40625 233.46875 186.210938 233.800781 185.804688 C 234.132812 185.402344 234.300781 184.804688 234.300781 184.011719 C 234.300781 183.210938 234.140625 182.609375 233.820312 182.21875 C 233.5 181.835938 233.113281 181.636719 232.65625 181.636719 C 232.179688 181.636719 231.78125 181.839844 231.445312 182.242188 C 231.113281 182.648438 230.945312 183.21875 230.945312 183.96875 Z M 230.945312 183.96875 "/>
<path style=" stroke:none;fill-rule:nonzero;fill:rgb(0%,0%,0%);fill-opacity:1;" d="M 240.726562 186.367188 C 240.335938 186.699219 239.960938 186.9375 239.601562 187.074219 C 239.234375 187.210938 238.851562 187.28125 238.433594 187.28125 C 237.75 187.28125 237.226562 187.117188 236.851562 186.78125 C 236.484375 186.449219 236.308594 186.023438 236.308594 185.492188 C 236.308594 185.1875 236.375 184.90625 236.515625 184.65625 C 236.652344 184.40625 236.835938 184.210938 237.058594 184.054688 C 237.277344 183.902344 237.527344 183.78125 237.808594 183.699219 C 238.015625 183.65625 238.328125 183.609375 238.746094 183.554688 C 239.605469 183.460938 240.234375 183.335938 240.640625 183.179688 C 240.640625 183.042969 240.640625 182.949219 240.640625 182.90625 C 240.640625 182.480469 240.542969 182.179688 240.351562 182.011719 C 240.070312 181.761719 239.667969 181.636719 239.140625 181.636719 C 238.640625 181.636719 238.273438 181.730469 238.039062 181.90625 C 237.796875 182.074219 237.625 182.382812 237.515625 182.824219 L 236.496094 182.699219 C 236.578125 182.257812 236.726562 181.902344 236.933594 181.636719 C 237.152344 181.359375 237.464844 181.152344 237.871094 181.011719 C 238.289062 180.859375 238.757812 180.78125 239.289062 180.78125 C 239.828125 180.78125 240.257812 180.84375 240.578125 180.96875 C 240.914062 181.09375 241.152344 181.257812 241.308594 181.449219 C 241.476562 181.632812 241.585938 181.867188 241.640625 182.15625 C 241.683594 182.339844 241.703125 182.65625 241.703125 183.117188 L 241.703125 184.53125 C 241.703125 185.507812 241.726562 186.125 241.765625 186.386719 C 241.808594 186.652344 241.898438 186.902344 242.039062 187.136719 L 240.933594 187.136719 C 240.820312 186.917969 240.75 186.65625 240.726562 186.367188 Z M 240.640625 184.011719 C 240.25 184.167969 239.671875 184.296875 238.914062 184.40625 C 238.480469 184.480469 238.171875 184.554688 237.996094 184.636719 C 237.8125 184.710938 237.671875 184.820312 237.578125 184.96875 C 237.480469 185.125 237.433594 185.292969 237.433594 185.46875 C 237.433594 185.75 237.539062 185.984375 237.746094 186.179688 C 237.953125 186.359375 238.265625 186.449219 238.683594 186.449219 C 239.085938 186.449219 239.445312 186.359375 239.765625 186.179688 C 240.085938 186 240.320312 185.757812 240.476562 185.449219 C 240.585938 185.214844 240.640625 184.867188 240.640625 184.40625 Z M 240.640625 184.011719 "/>
<path style=" stroke:none;fill-rule:nonzero;fill:rgb(0%,0%,0%);fill-opacity:1;" d="M 247.378906 187.136719 L 247.378906 186.34375 C 246.972656 186.96875 246.390625 187.28125 245.628906 187.28125 C 245.140625 187.28125 244.691406 187.140625 244.273438 186.867188 C 243.859375 186.589844 243.53125 186.210938 243.296875 185.71875 C 243.070312 185.234375 242.960938 184.671875 242.960938 184.03125 C 242.960938 183.40625 243.066406 182.84375 243.273438 182.34375 C 243.484375 181.835938 243.785156 181.445312 244.191406 181.179688 C 244.609375 180.917969 245.070312 180.78125 245.585938 180.78125 C 245.960938 180.78125 246.296875 180.859375 246.585938 181.011719 C 246.878906 181.167969 247.113281 181.375 247.296875 181.636719 L 247.296875 178.554688 L 248.359375 178.554688 L 248.359375 187.136719 Z M 244.046875 184.03125 C 244.046875 184.824219 244.210938 185.421875 244.546875 185.824219 C 244.878906 186.214844 245.273438 186.40625 245.734375 186.40625 C 246.191406 186.40625 246.578125 186.21875 246.898438 185.84375 C 247.234375 185.46875 247.398438 184.898438 247.398438 184.117188 C 247.398438 183.273438 247.234375 182.648438 246.898438 182.242188 C 246.566406 181.839844 246.160156 181.636719 245.691406 181.636719 C 245.21875 181.636719 244.820312 181.835938 244.503906 182.21875 C 244.195312 182.609375 244.046875 183.214844 244.046875 184.03125 Z M 244.046875 184.03125 "/>
<path style="fill:none;stroke-width:1;stroke-linecap:round;stroke-linejoin:round;stroke:rgb(0%,0%,0%);stroke-opacity:1;stroke-miterlimit:10;" d="M 212 313.999023 L 212 244.398438 " transform="matrix(1.333333,0,0,1.333333,-214.666667,-245.333333)"/>
<path style="fill:none;stroke-width:1;stroke-linecap:butt;stroke-linejoin:miter;stroke:rgb(0%,0%,0%);stroke-opacity:1;stroke-miterlimit:10;" d="M 212 240.399414 L 212 244.398438 M 210.5 244.398438 L 212 240.399414 L 213.5 244.398438 " transform="matrix(1.333333,0,0,1.333333,-214.666667,-245.333333)"/>
<path style="fill:none;stroke-width:1;stroke-linecap:round;stroke-linejoin:round;stroke:rgb(0%,0%,0%);stroke-opacity:1;stroke-miterlimit:10;" d="M 244.179688 313.999023 L 244.179688 244.398438 " transform="matrix(1.333333,0,0,1.333333,-214.666667,-245.333333)"/>
<path style="fill:none;stroke-width:1;stroke-linecap:butt;stroke-linejoin:miter;stroke:rgb(0%,0%,0%);stroke-opacity:1;stroke-miterlimit:10;" d="M 244.179688 240.399414 L 244.179688 244.398438 M 242.679688 244.398438 L 244.179688 240.399414 L 245.679688 244.398438 " transform="matrix(1.333333,0,0,1.333333,-214.666667,-245.333333)"/>
<path style="fill:none;stroke-width:1;stroke-linecap:round;stroke-linejoin:round;stroke:rgb(0%,0%,0%);stroke-opacity:1;stroke-miterlimit:10;" d="M 276.204102 313.999023 L 276.204102 244.398438 " transform="matrix(1.333333,0,0,1.333333,-214.666667,-245.333333)"/>
<path style="fill:none;stroke-width:1;stroke-linecap:butt;stroke-linejoin:miter;stroke:rgb(0%,0%,0%);stroke-opacity:1;stroke-miterlimit:10;" d="M 276.204102 240.399414 L 276.204102 244.398438 M 274.704102 244.398438 L 276.204102 240.399414 L 277.704102 244.398438 " transform="matrix(1.333333,0,0,1.333333,-214.666667,-245.333333)"/>
<path style="fill:none;stroke-width:1;stroke-linecap:round;stroke-linejoin:round;stroke:rgb(0%,0%,0%);stroke-opacity:1;stroke-miterlimit:10;" d="M 307.405273 313.999023 L 307.405273 244.398438 " transform="matrix(1.333333,0,0,1.333333,-214.666667,-245.333333)"/>
<path style="fill:none;stroke-width:1;stroke-linecap:butt;stroke-linejoin:miter;stroke:rgb(0%,0%,0%);stroke-opacity:1;stroke-miterlimit:10;" d="M 307.405273 240.399414 L 307.405273 244.398438 M 305.905273 244.398438 L 307.405273 240.399414 L 308.905273 244.398438 " transform="matrix(1.333333,0,0,1.333333,-214.666667,-245.333333)"/>
<path style="fill:none;stroke-width:1;stroke-linecap:round;stroke-linejoin:round;stroke:rgb(0%,0%,0%);stroke-opacity:1;stroke-miterlimit:10;" d="M 340.405273 313.999023 L 340.405273 244.398438 " transform="matrix(1.333333,0,0,1.333333,-214.666667,-245.333333)"/>
<path style="fill:none;stroke-width:1;stroke-linecap:butt;stroke-linejoin:miter;stroke:rgb(0%,0%,0%);stroke-opacity:1;stroke-miterlimit:10;" d="M 340.405273 240.399414 L 340.405273 244.398438 M 338.905273 244.398438 L 340.405273 240.399414 L 341.905273 244.398438 " transform="matrix(1.333333,0,0,1.333333,-214.666667,-245.333333)"/>
<path style=" stroke:none;fill-rule:nonzero;fill:rgb(40.000001%,74.901962%,100%);fill-opacity:1;" d="M 0.667969 72.667969 L 52.542969 72.667969 L 52.542969 44.328125 L 0.667969 44.328125 Z M 0.667969 72.667969 "/>
<path style="fill:none;stroke-width:1;stroke-linecap:round;stroke-linejoin:round;stroke:rgb(0%,0%,0%);stroke-opacity:1;stroke-miterlimit:10;" d="M 161.500977 217.246094 L 200.407227 217.246094 L 200.407227 238.500977 L 161.500977 238.500977 Z M 161.500977 217.246094 " transform="matrix(1.333333,0,0,1.333333,-214.666667,-245.333333)"/>
<path style=" stroke:none;fill-rule:nonzero;fill:rgb(0%,0%,0%);fill-opacity:1;" d="M 19.585938 62.300781 L 19.585938 53.71875 L 25.375 53.71875 L 25.375 54.71875 L 20.730469 54.71875 L 20.730469 57.386719 L 24.75 57.386719 L 24.75 58.40625 L 20.730469 58.40625 L 20.730469 62.300781 Z M 19.585938 62.300781 "/>
<path style=" stroke:none;fill-rule:nonzero;fill:rgb(0%,0%,0%);fill-opacity:1;" d="M 32.996094 59.28125 L 34.121094 59.574219 C 33.882812 60.503906 33.457031 61.21875 32.832031 61.71875 C 32.214844 62.207031 31.460938 62.449219 30.558594 62.449219 C 29.644531 62.449219 28.894531 62.261719 28.308594 61.886719 C 27.726562 61.511719 27.277344 60.96875 26.976562 60.261719 C 26.683594 59.542969 26.539062 58.769531 26.539062 57.949219 C 26.539062 57.046875 26.707031 56.261719 27.039062 55.59375 C 27.382812 54.925781 27.871094 54.425781 28.496094 54.09375 C 29.132812 53.75 29.832031 53.574219 30.582031 53.574219 C 31.441406 53.574219 32.164062 53.796875 32.746094 54.238281 C 33.339844 54.671875 33.753906 55.28125 33.976562 56.074219 L 32.851562 56.324219 C 32.652344 55.699219 32.371094 55.25 31.996094 54.96875 C 31.621094 54.675781 31.144531 54.53125 30.558594 54.53125 C 29.902344 54.53125 29.355469 54.691406 28.914062 55.011719 C 28.464844 55.332031 28.152344 55.761719 27.976562 56.300781 C 27.792969 56.832031 27.707031 57.375 27.707031 57.925781 C 27.707031 58.667969 27.808594 59.3125 28.019531 59.863281 C 28.238281 60.40625 28.570312 60.8125 29.019531 61.074219 C 29.460938 61.339844 29.945312 61.46875 30.476562 61.46875 C 31.113281 61.46875 31.648438 61.292969 32.082031 60.925781 C 32.523438 60.550781 32.832031 60.003906 32.996094 59.28125 Z M 32.996094 59.28125 "/>
<path style=" stroke:none;fill-rule:nonzero;fill:rgb(0%,0%,0%);fill-opacity:1;" d="M 6.511719 14.800781 L 6.511719 6.21875 L 9.761719 6.21875 C 10.328125 6.21875 10.765625 6.25 11.074219 6.300781 C 11.492188 6.375 11.835938 6.503906 12.117188 6.695312 C 12.40625 6.894531 12.636719 7.171875 12.804688 7.53125 C 12.980469 7.878906 13.074219 8.269531 13.074219 8.695312 C 13.074219 9.4375 12.835938 10.050781 12.367188 10.550781 C 11.90625 11.050781 11.074219 11.300781 9.867188 11.300781 L 7.65625 11.300781 L 7.65625 14.800781 Z M 7.65625 10.300781 L 9.886719 10.300781 C 10.605469 10.300781 11.121094 10.164062 11.429688 9.882812 C 11.746094 9.609375 11.90625 9.226562 11.90625 8.738281 C 11.90625 8.378906 11.8125 8.070312 11.636719 7.820312 C 11.453125 7.5625 11.210938 7.382812 10.90625 7.300781 C 10.726562 7.25 10.371094 7.21875 9.84375 7.21875 L 7.65625 7.21875 Z M 7.65625 10.300781 "/>
<path style=" stroke:none;fill-rule:nonzero;fill:rgb(0%,0%,0%);fill-opacity:1;" d="M 13.996094 11.695312 C 13.996094 10.546875 14.3125 9.691406 14.953125 9.132812 C 15.496094 8.675781 16.144531 8.445312 16.910156 8.445312 C 17.769531 8.445312 18.472656 8.726562 19.015625 9.28125 C 19.558594 9.835938 19.828125 10.609375 19.828125 11.59375 C 19.828125 12.398438 19.703125 13.03125 19.453125 13.488281 C 19.214844 13.945312 18.871094 14.3125 18.410156 14.570312 C 17.953125 14.820312 17.453125 14.945312 16.910156 14.945312 C 16.035156 14.945312 15.328125 14.671875 14.785156 14.113281 C 14.253906 13.546875 13.996094 12.738281 13.996094 11.695312 Z M 15.078125 11.695312 C 15.078125 12.488281 15.25 13.085938 15.597656 13.488281 C 15.941406 13.878906 16.378906 14.070312 16.910156 14.070312 C 17.4375 14.070312 17.875 13.878906 18.222656 13.488281 C 18.566406 13.085938 18.746094 12.476562 18.746094 11.65625 C 18.746094 10.894531 18.566406 10.3125 18.222656 9.90625 C 17.875 9.503906 17.4375 9.300781 16.910156 9.300781 C 16.378906 9.300781 15.941406 9.503906 15.597656 9.90625 C 15.25 10.296875 15.078125 10.894531 15.078125 11.695312 Z M 15.078125 11.695312 "/>
<path style=" stroke:none;fill-rule:nonzero;fill:rgb(0%,0%,0%);fill-opacity:1;" d="M 20.648438 12.945312 L 21.691406 12.78125 C 21.742188 13.195312 21.902344 13.519531 22.167969 13.738281 C 22.445312 13.960938 22.820312 14.070312 23.292969 14.070312 C 23.777344 14.070312 24.136719 13.976562 24.378906 13.78125 C 24.613281 13.585938 24.730469 13.359375 24.730469 13.09375 C 24.730469 12.84375 24.628906 12.65625 24.417969 12.53125 C 24.261719 12.4375 23.902344 12.3125 23.335938 12.15625 C 22.554688 11.960938 22.011719 11.796875 21.710938 11.65625 C 21.417969 11.519531 21.195312 11.320312 21.042969 11.070312 C 20.886719 10.820312 20.816406 10.546875 20.816406 10.238281 C 20.816406 9.960938 20.878906 9.707031 21.003906 9.46875 C 21.128906 9.234375 21.300781 9.03125 21.523438 8.863281 C 21.691406 8.753906 21.910156 8.65625 22.191406 8.570312 C 22.480469 8.488281 22.785156 8.445312 23.105469 8.445312 C 23.589844 8.445312 24.011719 8.519531 24.378906 8.65625 C 24.753906 8.796875 25.027344 8.984375 25.210938 9.21875 C 25.386719 9.457031 25.511719 9.773438 25.585938 10.175781 L 24.542969 10.320312 C 24.503906 10.003906 24.363281 9.753906 24.128906 9.570312 C 23.902344 9.394531 23.589844 9.300781 23.191406 9.300781 C 22.699219 9.300781 22.355469 9.382812 22.148438 9.550781 C 21.941406 9.707031 21.835938 9.894531 21.835938 10.113281 C 21.835938 10.253906 21.878906 10.375 21.960938 10.46875 C 22.042969 10.59375 22.179688 10.691406 22.378906 10.757812 C 22.472656 10.800781 22.777344 10.894531 23.292969 11.03125 C 24.042969 11.226562 24.566406 11.382812 24.855469 11.507812 C 25.160156 11.632812 25.398438 11.820312 25.566406 12.070312 C 25.730469 12.3125 25.816406 12.609375 25.816406 12.96875 C 25.816406 13.332031 25.710938 13.664062 25.503906 13.96875 C 25.292969 14.273438 24.992188 14.519531 24.605469 14.695312 C 24.230469 14.863281 23.792969 14.945312 23.292969 14.945312 C 22.488281 14.945312 21.867188 14.78125 21.441406 14.445312 C 21.023438 14.101562 20.757812 13.601562 20.648438 12.945312 Z M 20.648438 12.945312 "/>
<path style=" stroke:none;fill-rule:nonzero;fill:rgb(0%,0%,0%);fill-opacity:1;" d="M 27.066406 7.425781 L 27.066406 6.21875 L 28.128906 6.21875 L 28.128906 7.425781 Z M 27.066406 14.800781 L 27.066406 8.570312 L 28.128906 8.570312 L 28.128906 14.800781 Z M 27.066406 14.800781 "/>
<path style=" stroke:none;fill-rule:nonzero;fill:rgb(0%,0%,0%);fill-opacity:1;" d="M 32.042969 13.863281 L 32.191406 14.78125 C 31.882812 14.847656 31.617188 14.882812 31.398438 14.882812 C 31.007812 14.882812 30.710938 14.820312 30.503906 14.695312 C 30.292969 14.570312 30.136719 14.414062 30.042969 14.21875 C 29.960938 14.023438 29.917969 13.613281 29.917969 12.988281 L 29.917969 9.40625 L 29.148438 9.40625 L 29.148438 8.570312 L 29.917969 8.570312 L 29.917969 7.03125 L 30.980469 6.40625 L 30.980469 8.570312 L 32.042969 8.570312 L 32.042969 9.40625 L 30.980469 9.40625 L 30.980469 13.03125 C 30.980469 13.335938 30.992188 13.53125 31.023438 13.613281 C 31.066406 13.695312 31.128906 13.769531 31.210938 13.820312 C 31.292969 13.878906 31.410156 13.90625 31.566406 13.90625 C 31.691406 13.90625 31.847656 13.894531 32.042969 13.863281 Z M 32.042969 13.863281 "/>
<path style=" stroke:none;fill-rule:nonzero;fill:rgb(0%,0%,0%);fill-opacity:1;" d="M 33.066406 7.425781 L 33.066406 6.21875 L 34.128906 6.21875 L 34.128906 7.425781 Z M 33.066406 14.800781 L 33.066406 8.570312 L 34.128906 8.570312 L 34.128906 14.800781 Z M 33.066406 14.800781 "/>
<path style=" stroke:none;fill-rule:nonzero;fill:rgb(0%,0%,0%);fill-opacity:1;" d="M 37.460938 14.800781 L 35.085938 8.570312 L 36.210938 8.570312 L 37.542969 12.300781 C 37.679688 12.707031 37.816406 13.125 37.941406 13.550781 C 38.035156 13.234375 38.167969 12.84375 38.335938 12.382812 L 39.710938 8.570312 L 40.792969 8.570312 L 38.441406 14.800781 Z M 37.460938 14.800781 "/>
<path style=" stroke:none;fill-rule:nonzero;fill:rgb(0%,0%,0%);fill-opacity:1;" d="M 45.980469 12.800781 L 47.085938 12.925781 C 46.902344 13.566406 46.574219 14.066406 46.105469 14.425781 C 45.648438 14.773438 45.054688 14.945312 44.335938 14.945312 C 43.429688 14.945312 42.710938 14.671875 42.167969 14.113281 C 41.636719 13.546875 41.378906 12.753906 41.378906 11.738281 C 41.378906 10.695312 41.648438 9.894531 42.191406 9.320312 C 42.730469 8.738281 43.429688 8.445312 44.292969 8.445312 C 45.128906 8.445312 45.800781 8.734375 46.316406 9.300781 C 46.839844 9.859375 47.105469 10.648438 47.105469 11.675781 C 47.105469 11.75 47.105469 11.84375 47.105469 11.96875 L 42.460938 11.96875 C 42.503906 12.648438 42.695312 13.171875 43.042969 13.53125 C 43.386719 13.894531 43.824219 14.070312 44.355469 14.070312 C 44.742188 14.070312 45.070312 13.976562 45.335938 13.78125 C 45.613281 13.570312 45.824219 13.25 45.980469 12.800781 Z M 42.523438 11.09375 L 46.003906 11.09375 C 45.960938 10.566406 45.824219 10.171875 45.605469 9.90625 C 45.273438 9.503906 44.835938 9.300781 44.292969 9.300781 C 43.804688 9.300781 43.398438 9.46875 43.066406 9.800781 C 42.742188 10.125 42.566406 10.550781 42.523438 11.09375 Z M 42.523438 11.09375 "/>
<path style="fill:none;stroke-width:1;stroke-linecap:round;stroke-linejoin:round;stroke:rgb(0%,0%,0%);stroke-opacity:1;stroke-miterlimit:10;" d="M 180.954102 313.999023 L 180.954102 244.398438 " transform="matrix(1.333333,0,0,1.333333,-214.666667,-245.333333)"/>
<path style="fill:none;stroke-width:1;stroke-linecap:butt;stroke-linejoin:miter;stroke:rgb(0%,0%,0%);stroke-opacity:1;stroke-miterlimit:10;" d="M 180.954102 240.399414 L 180.954102 244.398438 M 179.454102 244.398438 L 180.954102 240.399414 L 182.454102 244.398438 " transform="matrix(1.333333,0,0,1.333333,-214.666667,-245.333333)"/>
<path style=" stroke:none;fill-rule:nonzero;fill:rgb(69.803923%,85.09804%,100%);fill-opacity:1;" d="M 0.667969 157.332031 L 265.144531 157.332031 L 265.144531 96 L 0.667969 96 Z M 0.667969 157.332031 "/>
<path style="fill:none;stroke-width:1;stroke-linecap:round;stroke-linejoin:round;stroke:rgb(0%,0%,0%);stroke-opacity:1;stroke-miterlimit:10;" d="M 161.500977 256 L 359.858398 256 L 359.858398 301.999023 L 161.500977 301.999023 Z M 161.500977 256 " transform="matrix(1.333333,0,0,1.333333,-214.666667,-245.333333)"/>
<path style=" stroke:none;fill-rule:nonzero;fill:rgb(0%,0%,0%);fill-opacity:1;" d="M 80.210938 130.46875 L 80.210938 122.886719 L 77.398438 122.886719 L 77.398438 121.886719 L 84.191406 121.886719 L 84.191406 122.886719 L 81.355469 122.886719 L 81.355469 130.46875 Z M 80.210938 130.46875 "/>
<path style=" stroke:none;fill-rule:nonzero;fill:rgb(0%,0%,0%);fill-opacity:1;" d="M 84.761719 130.46875 L 84.761719 124.242188 L 85.71875 124.242188 L 85.71875 125.199219 C 85.953125 124.757812 86.179688 124.464844 86.386719 124.324219 C 86.59375 124.1875 86.824219 124.117188 87.074219 124.117188 C 87.417969 124.117188 87.78125 124.230469 88.15625 124.449219 L 87.78125 125.429688 C 87.53125 125.277344 87.273438 125.199219 87.011719 125.199219 C 86.789062 125.199219 86.578125 125.273438 86.386719 125.40625 C 86.203125 125.546875 86.074219 125.742188 85.992188 125.992188 C 85.875 126.367188 85.824219 126.777344 85.824219 127.21875 L 85.824219 130.46875 Z M 84.761719 130.46875 "/>
<path style=" stroke:none;fill-rule:nonzero;fill:rgb(0%,0%,0%);fill-opacity:1;" d="M 92.839844 129.699219 C 92.449219 130.03125 92.074219 130.273438 91.714844 130.40625 C 91.351562 130.542969 90.964844 130.617188 90.550781 130.617188 C 89.867188 130.617188 89.339844 130.449219 88.964844 130.117188 C 88.601562 129.78125 88.425781 129.355469 88.425781 128.824219 C 88.425781 128.523438 88.492188 128.242188 88.632812 127.992188 C 88.769531 127.742188 88.949219 127.542969 89.175781 127.386719 C 89.394531 127.234375 89.644531 127.117188 89.925781 127.03125 C 90.132812 126.992188 90.445312 126.945312 90.863281 126.886719 C 91.722656 126.792969 92.351562 126.667969 92.757812 126.511719 C 92.757812 126.375 92.757812 126.28125 92.757812 126.242188 C 92.757812 125.8125 92.660156 125.511719 92.464844 125.34375 C 92.183594 125.09375 91.785156 124.96875 91.257812 124.96875 C 90.757812 124.96875 90.386719 125.0625 90.152344 125.242188 C 89.914062 125.40625 89.742188 125.714844 89.632812 126.15625 L 88.613281 126.03125 C 88.695312 125.589844 88.839844 125.234375 89.050781 124.96875 C 89.269531 124.695312 89.582031 124.484375 89.988281 124.34375 C 90.402344 124.195312 90.871094 124.117188 91.402344 124.117188 C 91.945312 124.117188 92.371094 124.179688 92.695312 124.304688 C 93.027344 124.429688 93.269531 124.589844 93.425781 124.78125 C 93.589844 124.964844 93.699219 125.199219 93.757812 125.492188 C 93.800781 125.671875 93.820312 125.992188 93.820312 126.449219 L 93.820312 127.867188 C 93.820312 128.839844 93.839844 129.460938 93.882812 129.71875 C 93.925781 129.984375 94.011719 130.234375 94.152344 130.46875 L 93.050781 130.46875 C 92.933594 130.25 92.867188 129.992188 92.839844 129.699219 Z M 92.757812 127.34375 C 92.367188 127.5 91.789062 127.632812 91.027344 127.742188 C 90.597656 127.8125 90.289062 127.886719 90.113281 127.96875 C 89.929688 128.042969 89.789062 128.152344 89.695312 128.304688 C 89.597656 128.460938 89.550781 128.625 89.550781 128.804688 C 89.550781 129.085938 89.652344 129.320312 89.863281 129.511719 C 90.070312 129.695312 90.382812 129.78125 90.800781 129.78125 C 91.199219 129.78125 91.558594 129.695312 91.882812 129.511719 C 92.199219 129.335938 92.433594 129.089844 92.589844 128.78125 C 92.699219 128.546875 92.757812 128.199219 92.757812 127.742188 Z M 92.757812 127.34375 "/>
<path style=" stroke:none;fill-rule:nonzero;fill:rgb(0%,0%,0%);fill-opacity:1;" d="M 95.453125 130.46875 L 95.453125 124.242188 L 96.410156 124.242188 L 96.410156 125.136719 C 96.855469 124.460938 97.515625 124.117188 98.390625 124.117188 C 98.765625 124.117188 99.105469 124.1875 99.410156 124.324219 C 99.730469 124.449219 99.964844 124.625 100.121094 124.84375 C 100.269531 125.054688 100.378906 125.3125 100.453125 125.617188 C 100.496094 125.8125 100.515625 126.152344 100.515625 126.636719 L 100.515625 130.46875 L 99.453125 130.46875 L 99.453125 126.679688 C 99.453125 126.25 99.410156 125.929688 99.328125 125.71875 C 99.246094 125.511719 99.097656 125.34375 98.890625 125.21875 C 98.683594 125.085938 98.4375 125.011719 98.160156 125.011719 C 97.714844 125.011719 97.328125 125.15625 96.996094 125.449219 C 96.671875 125.730469 96.515625 126.273438 96.515625 127.074219 L 96.515625 130.46875 Z M 95.453125 130.46875 "/>
<path style=" stroke:none;fill-rule:nonzero;fill:rgb(0%,0%,0%);fill-opacity:1;" d="M 101.710938 128.617188 L 102.753906 128.449219 C 102.804688 128.867188 102.964844 129.1875 103.230469 129.40625 C 103.507812 129.632812 103.882812 129.742188 104.355469 129.742188 C 104.839844 129.742188 105.199219 129.648438 105.441406 129.449219 C 105.675781 129.257812 105.792969 129.027344 105.792969 128.761719 C 105.792969 128.511719 105.691406 128.324219 105.480469 128.199219 C 105.324219 128.105469 104.964844 127.980469 104.398438 127.824219 C 103.617188 127.632812 103.074219 127.464844 102.773438 127.324219 C 102.480469 127.1875 102.257812 126.992188 102.105469 126.742188 C 101.949219 126.492188 101.878906 126.214844 101.878906 125.90625 C 101.878906 125.632812 101.941406 125.375 102.066406 125.136719 C 102.191406 124.902344 102.363281 124.699219 102.585938 124.53125 C 102.753906 124.421875 102.972656 124.324219 103.253906 124.242188 C 103.542969 124.15625 103.847656 124.117188 104.167969 124.117188 C 104.652344 124.117188 105.074219 124.1875 105.441406 124.324219 C 105.816406 124.464844 106.089844 124.652344 106.273438 124.886719 C 106.449219 125.125 106.574219 125.445312 106.648438 125.84375 L 105.605469 125.992188 C 105.566406 125.671875 105.425781 125.421875 105.191406 125.242188 C 104.964844 125.0625 104.652344 124.96875 104.253906 124.96875 C 103.761719 124.96875 103.417969 125.054688 103.210938 125.21875 C 103.003906 125.375 102.898438 125.5625 102.898438 125.78125 C 102.898438 125.921875 102.941406 126.042969 103.023438 126.136719 C 103.105469 126.261719 103.242188 126.359375 103.441406 126.429688 C 103.535156 126.46875 103.839844 126.5625 104.355469 126.699219 C 105.105469 126.898438 105.628906 127.054688 105.917969 127.179688 C 106.222656 127.304688 106.460938 127.492188 106.628906 127.742188 C 106.792969 127.980469 106.878906 128.277344 106.878906 128.636719 C 106.878906 129 106.773438 129.335938 106.566406 129.636719 C 106.355469 129.945312 106.054688 130.1875 105.667969 130.367188 C 105.292969 130.53125 104.855469 130.617188 104.355469 130.617188 C 103.550781 130.617188 102.929688 130.449219 102.503906 130.117188 C 102.085938 129.773438 101.820312 129.273438 101.710938 128.617188 Z M 101.710938 128.617188 "/>
<path style=" stroke:none;fill-rule:nonzero;fill:rgb(0%,0%,0%);fill-opacity:1;" d="M 108.378906 130.46875 L 108.378906 125.074219 L 107.441406 125.074219 L 107.441406 124.242188 L 108.378906 124.242188 L 108.378906 123.59375 C 108.378906 123.167969 108.410156 122.855469 108.480469 122.65625 C 108.589844 122.382812 108.773438 122.15625 109.023438 121.992188 C 109.285156 121.824219 109.648438 121.742188 110.105469 121.742188 C 110.398438 121.742188 110.722656 121.777344 111.085938 121.84375 L 110.917969 122.761719 C 110.710938 122.71875 110.507812 122.699219 110.316406 122.699219 C 109.992188 122.699219 109.761719 122.773438 109.628906 122.90625 C 109.488281 123.046875 109.417969 123.304688 109.417969 123.679688 L 109.417969 124.242188 L 110.648438 124.242188 L 110.648438 125.074219 L 109.417969 125.074219 L 109.417969 130.46875 Z M 108.378906 130.46875 "/>
<path style=" stroke:none;fill-rule:nonzero;fill:rgb(0%,0%,0%);fill-opacity:1;" d="M 111.066406 127.367188 C 111.066406 126.214844 111.382812 125.359375 112.023438 124.804688 C 112.566406 124.34375 113.214844 124.117188 113.980469 124.117188 C 114.839844 124.117188 115.542969 124.398438 116.085938 124.949219 C 116.628906 125.507812 116.898438 126.277344 116.898438 127.261719 C 116.898438 128.070312 116.773438 128.699219 116.523438 129.15625 C 116.285156 129.617188 115.941406 129.980469 115.480469 130.242188 C 115.023438 130.492188 114.523438 130.617188 113.980469 130.617188 C 113.105469 130.617188 112.398438 130.339844 111.855469 129.78125 C 111.324219 129.214844 111.066406 128.40625 111.066406 127.367188 Z M 112.148438 127.367188 C 112.148438 128.15625 112.320312 128.757812 112.667969 129.15625 C 113.011719 129.546875 113.449219 129.742188 113.980469 129.742188 C 114.507812 129.742188 114.945312 129.546875 115.292969 129.15625 C 115.636719 128.757812 115.816406 128.148438 115.816406 127.324219 C 115.816406 126.5625 115.636719 125.980469 115.292969 125.574219 C 114.945312 125.171875 114.507812 124.96875 113.980469 124.96875 C 113.449219 124.96875 113.011719 125.171875 112.667969 125.574219 C 112.320312 125.964844 112.148438 126.5625 112.148438 127.367188 Z M 112.148438 127.367188 "/>
<path style=" stroke:none;fill-rule:nonzero;fill:rgb(0%,0%,0%);fill-opacity:1;" d="M 118.113281 130.46875 L 118.113281 124.242188 L 119.074219 124.242188 L 119.074219 125.199219 C 119.308594 124.757812 119.53125 124.464844 119.738281 124.324219 C 119.949219 124.1875 120.175781 124.117188 120.425781 124.117188 C 120.769531 124.117188 121.136719 124.230469 121.511719 124.449219 L 121.136719 125.429688 C 120.886719 125.277344 120.625 125.199219 120.363281 125.199219 C 120.140625 125.199219 119.933594 125.273438 119.738281 125.40625 C 119.558594 125.546875 119.425781 125.742188 119.34375 125.992188 C 119.230469 126.367188 119.175781 126.777344 119.175781 127.21875 L 119.175781 130.46875 Z M 118.113281 130.46875 "/>
<path style=" stroke:none;fill-rule:nonzero;fill:rgb(0%,0%,0%);fill-opacity:1;" d="M 122.132812 130.46875 L 122.132812 124.242188 L 123.070312 124.242188 L 123.070312 125.117188 C 123.261719 124.8125 123.515625 124.570312 123.839844 124.386719 C 124.171875 124.210938 124.546875 124.117188 124.964844 124.117188 C 125.421875 124.117188 125.796875 124.214844 126.089844 124.40625 C 126.382812 124.589844 126.589844 124.855469 126.714844 125.199219 C 127.214844 124.480469 127.851562 124.117188 128.632812 124.117188 C 129.257812 124.117188 129.734375 124.292969 130.070312 124.636719 C 130.402344 124.96875 130.570312 125.492188 130.570312 126.199219 L 130.570312 130.46875 L 129.507812 130.46875 L 129.507812 126.554688 C 129.507812 126.125 129.46875 125.820312 129.402344 125.636719 C 129.34375 125.460938 129.226562 125.3125 129.046875 125.199219 C 128.867188 125.074219 128.652344 125.011719 128.402344 125.011719 C 127.96875 125.011719 127.609375 125.15625 127.320312 125.449219 C 127.027344 125.742188 126.882812 126.210938 126.882812 126.84375 L 126.882812 130.46875 L 125.820312 130.46875 L 125.820312 126.429688 C 125.820312 125.960938 125.734375 125.605469 125.570312 125.367188 C 125.402344 125.132812 125.121094 125.011719 124.734375 125.011719 C 124.429688 125.011719 124.152344 125.09375 123.902344 125.261719 C 123.652344 125.417969 123.46875 125.648438 123.359375 125.949219 C 123.246094 126.242188 123.195312 126.671875 123.195312 127.242188 L 123.195312 130.46875 Z M 122.132812 130.46875 "/>
<path style=" stroke:none;fill-rule:nonzero;fill:rgb(0%,0%,0%);fill-opacity:1;" d="M 136.378906 128.46875 L 137.480469 128.59375 C 137.300781 129.234375 136.972656 129.734375 136.503906 130.09375 C 136.042969 130.445312 135.449219 130.617188 134.730469 130.617188 C 133.824219 130.617188 133.105469 130.339844 132.566406 129.78125 C 132.035156 129.214844 131.773438 128.421875 131.773438 127.40625 C 131.773438 126.367188 132.042969 125.5625 132.585938 124.992188 C 133.128906 124.40625 133.824219 124.117188 134.691406 124.117188 C 135.523438 124.117188 136.195312 124.402344 136.710938 124.96875 C 137.238281 125.527344 137.503906 126.320312 137.503906 127.34375 C 137.503906 127.417969 137.503906 127.511719 137.503906 127.636719 L 132.855469 127.636719 C 132.898438 128.320312 133.089844 128.839844 133.441406 129.199219 C 133.785156 129.5625 134.222656 129.742188 134.753906 129.742188 C 135.136719 129.742188 135.464844 129.648438 135.730469 129.449219 C 136.007812 129.242188 136.222656 128.917969 136.378906 128.46875 Z M 132.917969 126.761719 L 136.398438 126.761719 C 136.355469 126.234375 136.222656 125.839844 136.003906 125.574219 C 135.667969 125.171875 135.230469 124.96875 134.691406 124.96875 C 134.199219 124.96875 133.792969 125.136719 133.460938 125.46875 C 133.136719 125.792969 132.960938 126.21875 132.917969 126.761719 Z M 132.917969 126.761719 "/>
<path style=" stroke:none;fill-rule:nonzero;fill:rgb(0%,0%,0%);fill-opacity:1;" d="M 138.78125 130.46875 L 138.78125 124.242188 L 139.738281 124.242188 L 139.738281 125.199219 C 139.972656 124.757812 140.199219 124.464844 140.40625 124.324219 C 140.613281 124.1875 140.84375 124.117188 141.09375 124.117188 C 141.4375 124.117188 141.800781 124.230469 142.175781 124.449219 L 141.800781 125.429688 C 141.550781 125.277344 141.292969 125.199219 141.03125 125.199219 C 140.808594 125.199219 140.597656 125.273438 140.40625 125.40625 C 140.222656 125.546875 140.09375 125.742188 140.011719 125.992188 C 139.894531 126.367188 139.84375 126.777344 139.84375 127.21875 L 139.84375 130.46875 Z M 138.78125 130.46875 "/>
<path style=" stroke:none;fill-rule:nonzero;fill:rgb(0%,0%,0%);fill-opacity:1;" d="M 150.382812 128.46875 L 151.484375 128.59375 C 151.304688 129.234375 150.976562 129.734375 150.507812 130.09375 C 150.046875 130.445312 149.453125 130.617188 148.734375 130.617188 C 147.828125 130.617188 147.109375 130.339844 146.570312 129.78125 C 146.039062 129.214844 145.777344 128.421875 145.777344 127.40625 C 145.777344 126.367188 146.046875 125.5625 146.589844 124.992188 C 147.132812 124.40625 147.828125 124.117188 148.695312 124.117188 C 149.527344 124.117188 150.199219 124.402344 150.714844 124.96875 C 151.242188 125.527344 151.507812 126.320312 151.507812 127.34375 C 151.507812 127.417969 151.507812 127.511719 151.507812 127.636719 L 146.859375 127.636719 C 146.902344 128.320312 147.09375 128.839844 147.445312 129.199219 C 147.789062 129.5625 148.226562 129.742188 148.757812 129.742188 C 149.140625 129.742188 149.46875 129.648438 149.734375 129.449219 C 150.011719 129.242188 150.226562 128.917969 150.382812 128.46875 Z M 146.921875 126.761719 L 150.402344 126.761719 C 150.359375 126.234375 150.226562 125.839844 150.007812 125.574219 C 149.671875 125.171875 149.234375 124.96875 148.695312 124.96875 C 148.203125 124.96875 147.796875 125.136719 147.464844 125.46875 C 147.140625 125.792969 146.964844 126.21875 146.921875 126.761719 Z M 146.921875 126.761719 "/>
<path style=" stroke:none;fill-rule:nonzero;fill:rgb(0%,0%,0%);fill-opacity:1;" d="M 152.804688 130.46875 L 152.804688 124.242188 L 153.765625 124.242188 L 153.765625 125.136719 C 154.207031 124.460938 154.867188 124.117188 155.742188 124.117188 C 156.117188 124.117188 156.457031 124.1875 156.765625 124.324219 C 157.082031 124.449219 157.316406 124.625 157.472656 124.84375 C 157.625 125.054688 157.734375 125.3125 157.804688 125.617188 C 157.847656 125.8125 157.867188 126.152344 157.867188 126.636719 L 157.867188 130.46875 L 156.804688 130.46875 L 156.804688 126.679688 C 156.804688 126.25 156.765625 125.929688 156.679688 125.71875 C 156.597656 125.511719 156.453125 125.34375 156.242188 125.21875 C 156.035156 125.085938 155.789062 125.011719 155.515625 125.011719 C 155.066406 125.011719 154.679688 125.15625 154.347656 125.449219 C 154.023438 125.730469 153.867188 126.273438 153.867188 127.074219 L 153.867188 130.46875 Z M 152.804688 130.46875 "/>
<path style=" stroke:none;fill-rule:nonzero;fill:rgb(0%,0%,0%);fill-opacity:1;" d="M 163.542969 128.199219 L 164.585938 128.324219 C 164.46875 129.046875 164.179688 129.609375 163.710938 130.011719 C 163.234375 130.417969 162.65625 130.617188 161.980469 130.617188 C 161.132812 130.617188 160.449219 130.339844 159.9375 129.78125 C 159.421875 129.230469 159.167969 128.429688 159.167969 127.386719 C 159.167969 126.710938 159.277344 126.117188 159.5 125.617188 C 159.71875 125.117188 160.054688 124.742188 160.5 124.492188 C 160.960938 124.242188 161.460938 124.117188 162 124.117188 C 162.667969 124.117188 163.214844 124.292969 163.648438 124.636719 C 164.074219 124.96875 164.355469 125.449219 164.480469 126.074219 L 163.460938 126.242188 C 163.359375 125.824219 163.1875 125.511719 162.9375 125.304688 C 162.6875 125.085938 162.386719 124.96875 162.042969 124.96875 C 161.5 124.96875 161.0625 125.167969 160.730469 125.554688 C 160.40625 125.929688 160.25 126.527344 160.25 127.34375 C 160.25 128.195312 160.40625 128.804688 160.730469 129.179688 C 161.046875 129.554688 161.464844 129.742188 161.980469 129.742188 C 162.398438 129.742188 162.742188 129.617188 163.023438 129.367188 C 163.296875 129.117188 163.46875 128.730469 163.542969 128.199219 Z M 163.542969 128.199219 "/>
<path style=" stroke:none;fill-rule:nonzero;fill:rgb(0%,0%,0%);fill-opacity:1;" d="M 165.085938 127.367188 C 165.085938 126.214844 165.402344 125.359375 166.042969 124.804688 C 166.585938 124.34375 167.234375 124.117188 168 124.117188 C 168.859375 124.117188 169.5625 124.398438 170.105469 124.949219 C 170.648438 125.507812 170.917969 126.277344 170.917969 127.261719 C 170.917969 128.070312 170.792969 128.699219 170.542969 129.15625 C 170.304688 129.617188 169.960938 129.980469 169.5 130.242188 C 169.042969 130.492188 168.542969 130.617188 168 130.617188 C 167.125 130.617188 166.417969 130.339844 165.875 129.78125 C 165.34375 129.214844 165.085938 128.40625 165.085938 127.367188 Z M 166.167969 127.367188 C 166.167969 128.15625 166.339844 128.757812 166.6875 129.15625 C 167.03125 129.546875 167.46875 129.742188 168 129.742188 C 168.527344 129.742188 168.964844 129.546875 169.3125 129.15625 C 169.65625 128.757812 169.835938 128.148438 169.835938 127.324219 C 169.835938 126.5625 169.65625 125.980469 169.3125 125.574219 C 168.964844 125.171875 168.527344 124.96875 168 124.96875 C 167.46875 124.96875 167.03125 125.171875 166.6875 125.574219 C 166.339844 125.964844 166.167969 126.5625 166.167969 127.367188 Z M 166.167969 127.367188 "/>
<path style=" stroke:none;fill-rule:nonzero;fill:rgb(0%,0%,0%);fill-opacity:1;" d="M 176.195312 130.46875 L 176.195312 129.679688 C 175.789062 130.304688 175.207031 130.617188 174.445312 130.617188 C 173.957031 130.617188 173.507812 130.476562 173.09375 130.199219 C 172.675781 129.921875 172.347656 129.542969 172.113281 129.054688 C 171.890625 128.570312 171.78125 128.007812 171.78125 127.367188 C 171.78125 126.742188 171.882812 126.179688 172.09375 125.679688 C 172.300781 125.167969 172.601562 124.777344 173.007812 124.511719 C 173.425781 124.25 173.890625 124.117188 174.40625 124.117188 C 174.78125 124.117188 175.113281 124.195312 175.40625 124.34375 C 175.695312 124.5 175.929688 124.710938 176.113281 124.96875 L 176.113281 121.886719 L 177.175781 121.886719 L 177.175781 130.46875 Z M 172.863281 127.367188 C 172.863281 128.15625 173.03125 128.757812 173.363281 129.15625 C 173.695312 129.546875 174.09375 129.742188 174.550781 129.742188 C 175.007812 129.742188 175.394531 129.554688 175.71875 129.179688 C 176.050781 128.804688 176.21875 128.230469 176.21875 127.449219 C 176.21875 126.605469 176.050781 125.980469 175.71875 125.574219 C 175.382812 125.171875 174.976562 124.96875 174.507812 124.96875 C 174.035156 124.96875 173.640625 125.167969 173.320312 125.554688 C 173.015625 125.945312 172.863281 126.546875 172.863281 127.367188 Z M 172.863281 127.367188 "/>
<path style=" stroke:none;fill-rule:nonzero;fill:rgb(0%,0%,0%);fill-opacity:1;" d="M 183.078125 128.46875 L 184.183594 128.59375 C 184 129.234375 183.671875 129.734375 183.203125 130.09375 C 182.746094 130.445312 182.152344 130.617188 181.433594 130.617188 C 180.527344 130.617188 179.808594 130.339844 179.265625 129.78125 C 178.734375 129.214844 178.476562 128.421875 178.476562 127.40625 C 178.476562 126.367188 178.746094 125.5625 179.289062 124.992188 C 179.828125 124.40625 180.527344 124.117188 181.390625 124.117188 C 182.226562 124.117188 182.898438 124.402344 183.414062 124.96875 C 183.9375 125.527344 184.203125 126.320312 184.203125 127.34375 C 184.203125 127.417969 184.203125 127.511719 184.203125 127.636719 L 179.558594 127.636719 C 179.601562 128.320312 179.792969 128.839844 180.140625 129.199219 C 180.484375 129.5625 180.921875 129.742188 181.453125 129.742188 C 181.839844 129.742188 182.167969 129.648438 182.433594 129.449219 C 182.710938 129.242188 182.921875 128.917969 183.078125 128.46875 Z M 179.621094 126.761719 L 183.101562 126.761719 C 183.058594 126.234375 182.921875 125.839844 182.703125 125.574219 C 182.371094 125.171875 181.933594 124.96875 181.390625 124.96875 C 180.902344 124.96875 180.496094 125.136719 180.164062 125.46875 C 179.839844 125.792969 179.664062 126.21875 179.621094 126.761719 Z M 179.621094 126.761719 "/>
<path style=" stroke:none;fill-rule:nonzero;fill:rgb(0%,0%,0%);fill-opacity:1;" d="M 185.484375 130.46875 L 185.484375 124.242188 L 186.441406 124.242188 L 186.441406 125.199219 C 186.675781 124.757812 186.898438 124.464844 187.109375 124.324219 C 187.316406 124.1875 187.546875 124.117188 187.796875 124.117188 C 188.140625 124.117188 188.503906 124.230469 188.878906 124.449219 L 188.503906 125.429688 C 188.253906 125.277344 187.992188 125.199219 187.734375 125.199219 C 187.507812 125.199219 187.300781 125.273438 187.109375 125.40625 C 186.925781 125.546875 186.796875 125.742188 186.710938 125.992188 C 186.597656 126.367188 186.546875 126.777344 186.546875 127.21875 L 186.546875 130.46875 Z M 185.484375 130.46875 "/>
<path style="fill:none;stroke-width:1;stroke-linecap:round;stroke-linejoin:round;stroke:rgb(0%,0%,0%);stroke-opacity:1;stroke-miterlimit:10;" d="M 180.954102 217.246094 L 180.954102 205.647461 " transform="matrix(1.333333,0,0,1.333333,-214.666667,-245.333333)"/>
<path style="fill:none;stroke-width:1;stroke-linecap:butt;stroke-linejoin:miter;stroke:rgb(0%,0%,0%);stroke-opacity:1;stroke-miterlimit:10;" d="M 180.954102 201.648438 L 180.954102 205.647461 M 179.454102 205.647461 L 180.954102 201.648438 L 182.454102 205.647461 " transform="matrix(1.333333,0,0,1.333333,-214.666667,-245.333333)"/>
</g>
</svg>
